<?xml version="1.0" encoding="UTF-8" standalone="no"?>
<svg width="189px" height="28px" viewBox="0 0 189 28" version="1.1" xmlns="http://www.w3.org/2000/svg" xmlns:xlink="http://www.w3.org/1999/xlink" xmlns:sketch="http://www.bohemiancoding.com/sketch/ns">
    <title>fileImage</title>
    <description>Created with Sketch (http://www.bohemiancoding.com/sketch)</description>
    <defs>
        <rect id="path-1" x="0" y="0" width="152" height="20"></rect>
        <mask id="mask-2" sketch:name="Rectangle 3" fill="white">
            <use xlink:href="#path-1"></use>
        </mask>
        <linearGradient x1="0%" y1="62.9300773%" x2="100%" y2="62.9300789%" id="linearGradient-3" stop-color="#FFFFFF">
            <stop stop-opacity="0" offset="0%" stop-color="#FFFFFF"></stop>
            <stop offset="100%" stop-color="#FFFFFF"></stop>
        </linearGradient>
    </defs>
    <g id="Page-1" stroke="none" stroke-width="1" fill="none" fill-rule="evenodd" sketch:type="MSPage">
        <rect d="M14.0017766,2 C7.37337842,2 2,7.37112582 2,14 L2,14 C2,20.627417 7.38234475,26 14.0017766,26 L173.998223,26 C180.626622,26 186,20.6288742 186,14 L186,14 C186,7.372583 180.617655,2 173.998223,2 L14.0017766,2 Z M14.0017766,2" id="Rectangle-1" stroke="#000000" stroke-width="2" fill="#FFFFFF" sketch:type="MSShapeGroup" x="2" y="2" width="184" height="24" rx="12"></rect>
        <g id="Rectangle-3-+-annual-report-2013.p" sketch:type="MSLayerGroup" transform="translate(22.000000, 4.000000)">
            <use id="Rectangle-3" fill="#FFFFFF" sketch:type="MSShapeGroup" xlink:href="#path-1"></use>
            <a xlink:href="http://www.w3schools.com/svg/" target="_blank">
                <text id="file-name.png" fill="#000000" sketch:type="MSTextLayer" mask="url(#mask-2)" font-family="Helvetica" font-size="13" font-weight="bold">
                    <tspan x="3" y="15"><!--filename--></tspan>
                </text>
            </a>
        </g>
        <path d="M16.5,10.5 L16.5,17.5" id="Line" stroke="#000000" stroke-width="3" stroke-linecap="square" sketch:type="MSShapeGroup"></path>
        <path d="M12,15 L21,15 L16.5,21 L12,15 Z M12,15" id="Triangle-1" fill="#000000" sketch:type="MSShapeGroup"></path>
        <rect d="M155,4 L155,24 L175,24 L175,4 L155,4 Z M155,4" id="Rectangle-2" fill="url(#linearGradient-3)" sketch:type="MSShapeGroup" x="155" y="4" width="20" height="20"></rect>
    </g>
</svg>